# Blender 4.2.20 LTS
# www.blender.org
o Cube
v -0.171535 -0.171622 -0.171535
v -0.171422 0.170988 -0.171889
v 0.170988 -0.171770 -0.171611
v 0.170988 0.171611 -0.171770
v -0.165626 -0.165913 -0.165797
v -0.165648 0.165214 -0.166115
v 0.165213 -0.165995 -0.165838
v 0.165214 0.165214 -0.166214
vn -0.7009 0.0008 0.7133
vn -0.7026 0.0018 0.7116
vn -0.7024 0.0010 0.7118
vn -0.7014 0.0012 0.7128
vn -0.0013 -0.7074 0.7068
vn 0.0006 -0.7080 0.7062
vn -0.0009 -0.7079 0.7063
vn 0.0013 -0.7077 0.7065
vn -0.0020 0.6816 0.7317
vn -0.0000 0.6811 0.7322
vn -0.0014 0.6812 0.7321
vn 0.0008 0.6812 0.7321
vn -0.0001 -0.0004 1.0000
vn 0.6993 0.0011 0.7148
vn 0.6998 0.0010 0.7143
vn 0.7008 0.0007 0.7134
vn 0.7012 0.0011 0.7130
vn -0.0000 -0.0000 -1.0000
vt 0.125752 0.749248
vt 0.125752 0.500752
vt 0.125727 0.500727
vt 0.125727 0.749273
vt 0.374273 0.749273
vt 0.374248 0.749248
vt 0.374248 0.500752
vt 0.374273 0.500727
s 0
f 5/1/1 6/2/2 2/3/3 1/4/4
f 5/1/5 1/4/6 3/5/7 7/6/8
f 8/7/9 4/8/10 2/3/11 6/2/12
f 6/2/13 5/1/13 7/6/13 8/7/13
f 7/6/14 3/5/15 4/8/16 8/7/17
f 2/3/18 4/8/18 3/5/18 1/4/18
