# Blender 4.2.20 LTS
# www.blender.org
o Cube.004
v 0.170988 0.171988 0.170988
v 0.163921 0.165140 0.171608
v -0.171988 0.170988 0.170988
v -0.165695 0.163921 0.171961
v 0.165214 0.165214 -0.166214
v -0.165648 0.165214 -0.166115
v -0.171422 0.170988 -0.171889
v 0.170988 0.171611 -0.171770
vn -0.0000 0.0003 1.0000
vn -0.0000 -1.0000 -0.0038
vn -0.0000 1.0000 -0.0000
vn 0.7196 -0.6944 -0.0002
vn 0.7172 -0.6968 0.0037
vn 0.7174 -0.6967 -0.0002
vn 0.7188 -0.6952 0.0040
vn 0.0031 -0.6808 -0.7324
vn -0.0005 -0.6830 -0.7304
vn 0.0023 -0.6827 -0.7307
vn 0.0005 -0.6796 -0.7336
vn -0.7286 -0.6850 -0.0043
vn -0.7280 -0.6856 0.0004
vn -0.7267 -0.6870 -0.0031
vn -0.7295 -0.6839 -0.0003
vt 0.625000 0.500000
vt 0.625000 0.250000
vt 0.625000 0.251479
vt 0.625000 0.500230
vt 0.375739 0.250753
vt 0.375739 0.499247
vt 0.624261 0.499243
vt 0.624261 0.250757
vt 0.375727 0.250727
vt 0.624273 0.250727
vt 0.624273 0.499273
vt 0.375727 0.499273
s 0
f 1/1/1 3/2/1 4/3/1 2/4/1
f 6/5/2 5/6/2 2/7/2 4/8/2
f 7/9/3 3/10/3 1/11/3 8/12/3
f 2/7/4 5/6/5 8/12/6 1/11/7
f 5/6/8 6/5/9 7/9/10 8/12/11
f 3/10/12 7/9/13 6/5/14 4/8/15
