# Blender 4.2.20 LTS
# www.blender.org
o Cube.002
v -0.163921 -0.164921 0.170988
v 0.164921 -0.163921 0.170988
v -0.171611 -0.171770 0.170988
v 0.170988 -0.171988 0.170988
v -0.165626 -0.165913 -0.165797
v 0.165213 -0.165995 -0.165838
v -0.171535 -0.171622 -0.171535
v 0.170988 -0.171770 -0.171611
vn -0.0000 -1.0000 -0.0000
vn -0.0006 1.0000 -0.0042
vn -0.0005 1.0000 -0.0041
vn -0.0002 1.0000 -0.0039
vn -0.0000 -0.0000 1.0000
vn -0.0004 0.7075 -0.7067
vn 0.0008 0.7082 -0.7060
vn 0.0002 0.7072 -0.7070
vn -0.0004 0.7084 -0.7058
vn -0.6786 0.7345 0.0007
vn -0.6791 0.7341 0.0016
vn -0.6783 0.7348 0.0014
vn 0.7596 0.6504 -0.0015
vn 0.7591 0.6510 -0.0017
vn 0.7596 0.6504 -0.0023
vt 0.375727 0.750727
vt 0.624273 0.750727
vt 0.624273 0.999273
vt 0.375727 0.999273
vt 0.375739 0.750753
vt 0.375739 0.999247
vt 0.624261 0.999243
vt 0.624261 0.750757
vt 0.625000 1.000000
vt 0.625000 0.750000
vt 0.625000 0.751479
vt 0.625000 1.000230
s 0
f 8/1/1 4/2/1 3/3/1 7/4/1
f 6/5/2 5/6/3 1/7/2 2/8/4
f 3/9/5 4/10/5 2/11/5 1/12/5
f 8/1/6 7/4/7 5/6/8 6/5/9
f 3/9/10 1/12/10 5/6/11 7/4/12
f 4/10/13 8/1/14 6/5/15 2/11/13
