# Blender 4.2.20 LTS
# www.blender.org
o Cube.001
v -0.171611 -0.171770 0.170988
v -0.171988 0.170988 0.170988
v -0.165695 0.163921 0.171961
v -0.163921 -0.164921 0.170988
v -0.165626 -0.165913 -0.165797
v -0.165648 0.165214 -0.166115
v -0.171535 -0.171622 -0.171535
v -0.171422 0.170988 -0.171889
vn -0.0000 -0.0000 1.0000
vn -1.0000 -0.0000 0.0001
vn 1.0000 -0.0000 -0.0038
vn 0.6943 0.7178 -0.0520
vn 0.7404 0.6689 0.0664
vn 0.7290 0.6845 0.0047
vn 0.7289 0.6846 0.0021
vn 0.7015 -0.0018 -0.7126
vn 0.7008 0.0018 -0.7134
vn 0.7040 -0.0014 -0.7102
vn 0.7021 0.0003 -0.7121
vn 0.6776 -0.7354 0.0020
vn 0.6778 -0.7352 -0.0011
vn 0.6791 -0.7340 0.0001
vn 0.6802 -0.7330 -0.0028
vt 0.625000 0.250000
vt 0.625000 0.000000
vt 0.625000 0.001479
vt 0.625000 0.250230
vt 0.375727 0.000727
vt 0.624273 0.000727
vt 0.624273 0.249273
vt 0.375727 0.249273
vt 0.375739 0.000753
vt 0.375739 0.249247
vt 0.624261 0.249243
vt 0.624261 0.000757
s 0
f 2/1/1 1/2/1 4/3/1 3/4/1
f 7/5/2 1/6/2 2/7/2 8/8/2
f 5/9/3 6/10/3 3/11/3 4/12/3
f 2/1/4 3/4/5 6/10/6 8/8/7
f 8/8/8 6/10/9 5/9/10 7/5/11
f 4/12/12 1/6/13 7/5/14 5/9/15
