# Blender 4.2.20 LTS
# www.blender.org
o 贝塞尔圆环
v -0.057078 -0.950000 0.124841
v 0.038468 -0.950000 0.124929
v 0.134010 -0.950000 0.124122
v 0.229539 -0.950000 0.122394
v 0.325045 -0.950000 0.119700
v 0.420514 -0.950000 0.115969
v 0.515930 -0.950000 0.111101
v 0.611268 -0.950000 0.104947
v 0.706491 -0.950000 0.097269
v 0.801534 -0.950000 0.087699
v 0.896267 -0.950000 0.075541
v 0.990355 -0.950000 0.059394
v 1.082316 -0.950000 0.034143
v 1.099265 -0.950000 -0.027175
v 1.008533 -0.950000 -0.055531
v 0.914664 -0.950000 -0.072760
v 0.820016 -0.950000 -0.085570
v 0.725020 -0.950000 -0.095568
v 0.629826 -0.950000 -0.103581
v 0.534507 -0.950000 -0.110009
v 0.439104 -0.950000 -0.115114
v 0.343644 -0.950000 -0.119057
v 0.248144 -0.950000 -0.121947
v 0.152618 -0.950000 -0.123858
v 0.057078 -0.950000 -0.124842
v -0.038468 -0.950000 -0.124928
v -0.134010 -0.950000 -0.124122
v -0.229539 -0.950000 -0.122394
v -0.325045 -0.950000 -0.119700
v -0.420514 -0.950000 -0.115969
v -0.515930 -0.950000 -0.111101
v -0.611268 -0.950000 -0.104947
v -0.706491 -0.950000 -0.097269
v -0.801534 -0.950000 -0.087699
v -0.896267 -0.950000 -0.075541
v -0.990355 -0.950000 -0.059394
v -1.082316 -0.950000 -0.034143
v -1.099265 -0.950000 0.027175
v -1.008533 -0.950000 0.055531
v -0.914664 -0.950000 0.072760
v -0.820016 -0.950000 0.085570
v -0.725020 -0.950000 0.095568
v -0.629826 -0.950000 0.103581
v -0.534507 -0.950000 0.110009
v -0.439104 -0.950000 0.115114
v -0.343644 -0.950000 0.119057
v -0.248144 -0.950000 0.121947
v -0.152618 -0.950000 0.123858
v -0.057078 0.950000 0.124841
v 0.038468 0.950000 0.124929
v 0.134010 0.950000 0.124122
v 0.229539 0.950000 0.122394
v 0.325045 0.950000 0.119700
v 0.420514 0.950000 0.115969
v 0.515930 0.950000 0.111101
v 0.611268 0.950000 0.104947
v 0.706491 0.950000 0.097269
v 0.801534 0.950000 0.087699
v 0.896267 0.950000 0.075541
v 0.990355 0.950000 0.059394
v 1.082316 0.950000 0.034143
v 1.099265 0.950000 -0.027175
v 1.008533 0.950000 -0.055531
v 0.914664 0.950000 -0.072760
v 0.820016 0.950000 -0.085570
v 0.725020 0.950000 -0.095568
v 0.629826 0.950000 -0.103581
v 0.534507 0.950000 -0.110009
v 0.439104 0.950000 -0.115114
v 0.343644 0.950000 -0.119057
v 0.248144 0.950000 -0.121947
v 0.152618 0.950000 -0.123858
v 0.057078 0.950000 -0.124842
v -0.038468 0.950000 -0.124928
v -0.134010 0.950000 -0.124122
v -0.229539 0.950000 -0.122394
v -0.325045 0.950000 -0.119700
v -0.420514 0.950000 -0.115969
v -0.515930 0.950000 -0.111101
v -0.611268 0.950000 -0.104947
v -0.706491 0.950000 -0.097269
v -0.801534 0.950000 -0.087699
v -0.896267 0.950000 -0.075541
v -0.990355 0.950000 -0.059394
v -1.082316 0.950000 -0.034143
v -1.099265 0.950000 0.027175
v -1.008533 0.950000 0.055531
v -0.914664 0.950000 0.072760
v -0.820016 0.950000 0.085570
v -0.725020 0.950000 0.095568
v -0.629826 0.950000 0.103581
v -0.534507 0.950000 0.110009
v -0.439104 0.950000 0.115114
v -0.343644 0.950000 0.119057
v -0.248144 0.950000 0.121947
v -0.152618 0.950000 0.123858
vn -0.0103 -0.0000 0.9999
vn -0.0200 -0.0000 0.9998
vn -0.0302 -0.0000 0.9995
vn -0.0413 -0.0000 0.9991
vn -0.0534 -0.0000 0.9986
vn -0.0673 -0.0000 0.9977
vn -0.0839 -0.0000 0.9965
vn -0.1047 -0.0000 0.9945
vn -0.1341 -0.0000 0.9910
vn -0.1805 -0.0000 0.9836
vn -0.2983 -0.0000 0.9545
vn -0.9639 -0.0000 -0.2664
vn -0.2648 -0.0000 -0.9643
vn -0.1691 -0.0000 -0.9856
vn -0.1273 -0.0000 -0.9919
vn -0.1002 -0.0000 -0.9950
vn -0.0804 -0.0000 -0.9968
vn -0.0644 -0.0000 -0.9979
vn -0.0510 -0.0000 -0.9987
vn -0.0391 -0.0000 -0.9992
vn -0.0282 -0.0000 -0.9996
vn -0.0181 -0.0000 -0.9998
vn -0.0084 -0.0000 -1.0000
vn 0.0009 -0.0000 -1.0000
vn 0.0103 -0.0000 -0.9999
vn 0.0200 -0.0000 -0.9998
vn 0.0302 -0.0000 -0.9995
vn 0.0413 -0.0000 -0.9991
vn 0.0534 -0.0000 -0.9986
vn 0.0673 -0.0000 -0.9977
vn 0.0839 -0.0000 -0.9965
vn 0.1047 -0.0000 -0.9945
vn 0.1341 -0.0000 -0.9910
vn 0.1805 -0.0000 -0.9836
vn 0.2983 -0.0000 -0.9545
vn 0.9639 -0.0000 0.2664
vn 0.2648 -0.0000 0.9643
vn 0.1691 -0.0000 0.9856
vn 0.1273 -0.0000 0.9919
vn 0.1002 -0.0000 0.9950
vn 0.0804 -0.0000 0.9968
vn 0.0644 -0.0000 0.9979
vn 0.0510 -0.0000 0.9987
vn 0.0391 -0.0000 0.9992
vn 0.0282 -0.0000 0.9996
vn 0.0181 -0.0000 0.9998
vn 0.0084 -0.0000 1.0000
vn -0.0009 -0.0000 1.0000
s 0
f 96//1 1//1 49//1
f 95//2 48//2 96//2
f 94//3 47//3 95//3
f 93//4 46//4 94//4
f 92//5 45//5 93//5
f 91//6 44//6 92//6
f 90//7 43//7 91//7
f 89//8 42//8 90//8
f 88//9 41//9 89//9
f 87//10 40//10 88//10
f 86//11 39//11 87//11
f 85//12 38//12 86//12
f 84//13 37//13 85//13
f 83//14 36//14 84//14
f 82//15 35//15 83//15
f 81//16 34//16 82//16
f 80//17 33//17 81//17
f 79//18 32//18 80//18
f 78//19 31//19 79//19
f 77//20 30//20 78//20
f 76//21 29//21 77//21
f 75//22 28//22 76//22
f 74//23 27//23 75//23
f 73//24 26//24 74//24
f 72//25 25//25 73//25
f 71//26 24//26 72//26
f 70//27 23//27 71//27
f 69//28 22//28 70//28
f 68//29 21//29 69//29
f 67//30 20//30 68//30
f 66//31 19//31 67//31
f 65//32 18//32 66//32
f 64//33 17//33 65//33
f 63//34 16//34 64//34
f 62//35 15//35 63//35
f 61//36 14//36 62//36
f 60//37 13//37 61//37
f 59//38 12//38 60//38
f 58//39 11//39 59//39
f 57//40 10//40 58//40
f 56//41 9//41 57//41
f 55//42 8//42 56//42
f 54//43 7//43 55//43
f 53//44 6//44 54//44
f 52//45 5//45 53//45
f 51//46 4//46 52//46
f 50//47 3//47 51//47
f 49//48 2//48 50//48
f 96//1 48//1 1//1
f 95//2 47//2 48//2
f 94//3 46//3 47//3
f 93//4 45//4 46//4
f 92//5 44//5 45//5
f 91//6 43//6 44//6
f 90//7 42//7 43//7
f 89//8 41//8 42//8
f 88//9 40//9 41//9
f 87//10 39//10 40//10
f 86//11 38//11 39//11
f 85//12 37//12 38//12
f 84//13 36//13 37//13
f 83//14 35//14 36//14
f 82//15 34//15 35//15
f 81//16 33//16 34//16
f 80//17 32//17 33//17
f 79//18 31//18 32//18
f 78//19 30//19 31//19
f 77//20 29//20 30//20
f 76//21 28//21 29//21
f 75//22 27//22 28//22
f 74//23 26//23 27//23
f 73//24 25//24 26//24
f 72//25 24//25 25//25
f 71//26 23//26 24//26
f 70//27 22//27 23//27
f 69//28 21//28 22//28
f 68//29 20//29 21//29
f 67//30 19//30 20//30
f 66//31 18//31 19//31
f 65//32 17//32 18//32
f 64//33 16//33 17//33
f 63//34 15//34 16//34
f 62//35 14//35 15//35
f 61//36 13//36 14//36
f 60//37 12//37 13//37
f 59//38 11//38 12//38
f 58//39 10//39 11//39
f 57//40 9//40 10//40
f 56//41 8//41 9//41
f 55//42 7//42 8//42
f 54//43 6//43 7//43
f 53//44 5//44 6//44
f 52//45 4//45 5//45
f 51//46 3//46 4//46
f 50//47 2//47 3//47
f 49//48 1//48 2//48
