# Blender 4.2.20 LTS
# www.blender.org
mtllib Fin0_R.mtl
o Fin0_R
v -0.092032 -0.031896 -0.015122
v -0.089732 -0.029896 -0.015822
v -0.084932 -0.035796 -0.026222
v -0.088432 -0.037296 -0.025622
v -0.074932 -0.043996 -0.040522
v -0.077532 -0.046396 -0.043222
v -0.058532 -0.053096 -0.056822
v -0.058232 -0.056696 -0.063122
v -0.044832 -0.058596 -0.066922
v -0.041832 -0.062496 -0.074322
v -0.025032 -0.066096 -0.081322
v -0.022932 -0.067196 -0.083522
v -0.032732 -0.062496 -0.074422
v -0.030632 -0.063496 -0.076322
v -0.087432 -0.029796 -0.015522
v -0.081632 -0.035696 -0.025722
v -0.072432 -0.042396 -0.037522
v -0.058632 -0.049796 -0.050622
v -0.047532 -0.055096 -0.060322
v -0.033932 -0.061896 -0.073222
v -0.038232 -0.058496 -0.066822
v -0.037432 -0.059496 -0.068522
v -0.085032 -0.029896 -0.015422
v -0.078632 -0.035396 -0.025022
v -0.070132 -0.040796 -0.034422
v -0.058532 -0.046596 -0.044722
v -0.048532 -0.050596 -0.051822
v -0.039132 -0.057696 -0.065022
v -0.040832 -0.053696 -0.057622
v -0.040632 -0.054796 -0.059522
v -0.082632 -0.029896 -0.015422
v -0.075932 -0.034996 -0.024122
v -0.067932 -0.039196 -0.031322
v -0.058132 -0.043596 -0.039122
v -0.049232 -0.046696 -0.044422
v -0.041132 -0.052796 -0.055722
v -0.041132 -0.049096 -0.048822
v -0.041232 -0.050096 -0.050422
v -0.080232 -0.030096 -0.015522
v -0.073332 -0.034496 -0.023022
v -0.065932 -0.037596 -0.028322
v -0.057532 -0.040796 -0.033822
v -0.049732 -0.043196 -0.037822
v -0.041432 -0.048396 -0.047022
v -0.041832 -0.045196 -0.041322
v -0.041832 -0.046096 -0.042622
v -0.077832 -0.030296 -0.015722
v -0.070932 -0.033896 -0.021822
v -0.063932 -0.036096 -0.025322
v -0.056632 -0.038096 -0.028722
v -0.049632 -0.039796 -0.031522
v -0.042132 -0.044596 -0.039722
v -0.042632 -0.041296 -0.033922
v -0.042632 -0.042296 -0.035322
v -0.075332 -0.030596 -0.016122
v -0.068732 -0.033296 -0.020622
v -0.062132 -0.034496 -0.022322
v -0.055532 -0.035696 -0.024022
v -0.049032 -0.036696 -0.025522
v -0.042832 -0.040796 -0.032422
v -0.042532 -0.037596 -0.027022
v -0.042732 -0.038696 -0.028222
v -0.072832 -0.032296 -0.015922
v -0.066632 -0.033796 -0.018822
v -0.060432 -0.033796 -0.018922
v -0.054132 -0.033996 -0.019222
v -0.049632 -0.034196 -0.019622
v -0.042532 -0.037196 -0.025522
v -0.044732 -0.034496 -0.020222
v -0.042632 -0.035196 -0.021522
v -0.026932 -0.065196 -0.079522
v -0.028832 -0.064296 -0.077822
v -0.035132 -0.061096 -0.071722
v -0.036332 -0.060296 -0.070122
v -0.039632 -0.056696 -0.063222
v -0.040132 -0.055796 -0.061322
v -0.041132 -0.051896 -0.053922
v -0.041232 -0.050996 -0.052122
v -0.041532 -0.047596 -0.045522
v -0.041632 -0.046796 -0.044022
v -0.042332 -0.043796 -0.038222
v -0.042532 -0.042996 -0.036722
v -0.042832 -0.040096 -0.031022
v -0.042732 -0.039396 -0.029622
v -0.042232 -0.036596 -0.024222
v -0.042132 -0.035896 -0.022922
v -0.084932 -0.038596 -0.024822
v -0.089732 -0.033596 -0.013922
v -0.074932 -0.045596 -0.039722
v -0.058532 -0.053596 -0.056522
v -0.044832 -0.058696 -0.066822
v -0.081632 -0.038296 -0.024422
v -0.087432 -0.033396 -0.013722
v -0.072432 -0.043996 -0.036622
v -0.058632 -0.050396 -0.050222
v -0.047532 -0.055296 -0.060222
v -0.038232 -0.058596 -0.066722
v -0.078632 -0.037896 -0.023722
v -0.085032 -0.033296 -0.013622
v -0.070132 -0.042396 -0.033622
v -0.058532 -0.047496 -0.044222
v -0.048532 -0.050996 -0.051622
v -0.040832 -0.053896 -0.057522
v -0.075932 -0.037396 -0.022922
v -0.082632 -0.033196 -0.013722
v -0.067932 -0.040896 -0.030522
v -0.058132 -0.044596 -0.038622
v -0.049232 -0.047196 -0.044122
v -0.041132 -0.049396 -0.048622
v -0.073332 -0.036796 -0.021822
v -0.080232 -0.033196 -0.013922
v -0.065932 -0.039296 -0.027422
v -0.057532 -0.041896 -0.033222
v -0.049732 -0.043896 -0.037422
v -0.041832 -0.045496 -0.041122
v -0.070932 -0.036196 -0.020722
v -0.077832 -0.033296 -0.014222
v -0.063932 -0.037796 -0.024422
v -0.056632 -0.039396 -0.028122
v -0.049632 -0.040596 -0.031122
v -0.042632 -0.041796 -0.033722
v -0.068732 -0.035496 -0.019522
v -0.075332 -0.033396 -0.014622
v -0.062132 -0.036196 -0.021422
v -0.055532 -0.036896 -0.023422
v -0.049032 -0.037596 -0.025122
v -0.042532 -0.038196 -0.026722
vn 0.0482 0.8997 -0.4339
vn 0.0726 0.8837 -0.4624
vn 0.0676 0.8858 -0.4591
vn 0.0432 0.8836 -0.4663
vn 0.0160 -0.8947 0.4464
vn -0.0838 -0.9191 0.3851
vn -0.1493 -0.9285 0.3399
vn -0.0175 -0.9016 0.4322
vn -0.0175 0.8740 -0.4856
vn -0.0213 0.8717 -0.4895
vn -0.1492 0.8143 -0.5609
vn -0.3783 -0.8858 0.2688
vn -0.0839 -0.9191 0.3851
vn -0.2036 -0.9230 0.3266
vn -0.0016 0.8837 -0.4681
vn -0.0029 0.8851 -0.4653
vn -0.0213 0.8718 -0.4894
vn -0.0018 0.8836 -0.4682
vn 0.0131 0.8940 -0.4479
vn 0.0186 0.8971 -0.4414
vn 0.0550 -0.8369 0.5446
vn 0.0425 -0.8634 0.5028
vn 0.0312 -0.8072 0.5895
vn 0.0424 -0.7190 0.6937
vn 0.0160 0.8816 -0.4717
vn -0.1493 0.8143 -0.5609
vn -0.0838 0.8457 -0.5270
vn 0.0210 -0.8914 0.4528
vn 0.0160 -0.8947 0.4463
vn 0.0125 -0.8913 0.4532
vn 0.0279 0.8793 -0.4755
vn 0.0260 0.8788 -0.4765
vn 0.0304 0.8766 -0.4802
vn 0.0311 0.8772 -0.4791
vn -0.0015 0.8837 -0.4680
vn 0.0117 0.8930 -0.4499
vn 0.0134 0.8941 -0.4477
vn 0.0124 0.8851 -0.4652
vn 0.0047 0.8846 -0.4664
vn 0.0251 0.8940 -0.4473
vn 0.0587 0.8876 -0.4569
vn 0.0355 0.8843 -0.4656
vn 0.0433 0.8836 -0.4663
vn 0.0378 0.8665 -0.4978
vn 0.0349 0.9250 -0.3783
vn 0.0434 0.8978 -0.4383
vn 0.0775 0.8818 -0.4652
vn 0.0482 0.8997 -0.4338
vn 0.0221 -0.8946 0.4463
vn 0.0241 -0.8975 0.4404
vn 0.0221 -0.8981 0.4393
vn 0.0192 -0.8947 0.4462
vn 0.0355 -0.8913 0.4521
vn 0.0192 -0.8947 0.4463
vn 0.0279 -0.8914 0.4523
vn 0.0126 0.8852 -0.4650
vn 0.0307 0.8986 -0.4377
vn 0.0049 0.8847 -0.4662
vn 0.0209 0.8849 -0.4653
vn -0.0007 0.8784 -0.4780
vn 0.0257 0.8871 -0.4609
vn 0.0353 -0.8993 0.4360
vn 0.0297 -0.8993 0.4364
vn 0.0304 -0.8987 0.4375
vn 0.0356 -0.8985 0.4376
vn 0.0350 -0.8999 0.4346
vn 0.0293 -0.8998 0.4353
vn 0.0353 -0.8992 0.4360
vn 0.0278 0.8817 -0.4709
vn 0.0249 0.8816 -0.4714
vn 0.0279 0.8846 -0.4656
vn 0.0210 0.8849 -0.4653
vn 0.0192 0.8815 -0.4718
vn 0.0210 0.8850 -0.4652
vn 0.0504 0.9024 -0.4280
vn -0.0006 0.8785 -0.4778
vn 0.0278 0.8845 -0.4658
vn 0.0049 0.8760 -0.4822
vn 0.0218 0.8787 -0.4768
vn 0.0356 0.8765 -0.4800
vn 0.0359 0.8773 -0.4786
vn 0.0311 0.8772 -0.4792
vn -0.0838 -0.9190 0.3852
vn 0.0249 -0.8944 0.4466
vn 0.0260 -0.8970 0.4413
vn 0.0241 -0.8975 0.4403
vn -0.3626 -0.8963 0.2552
vn -0.2034 -0.9230 0.3267
vn 0.0350 -0.9000 0.4345
vn 0.0280 0.8846 -0.4655
vn 0.0621 0.9111 -0.4075
vn 0.0050 0.8762 -0.4819
vn 0.0354 0.8844 -0.4654
vn 0.0016 0.8667 -0.4989
vn 0.0259 0.8720 -0.4889
vn 0.0358 0.8774 -0.4785
vn 0.0360 0.8781 -0.4770
vn 0.0320 0.8777 -0.4781
vn 0.0320 0.8776 -0.4783
vn 0.0311 0.8771 -0.4793
vn 0.0358 0.8773 -0.4787
vn 0.0311 -0.8982 0.4385
vn 0.0279 -0.8964 0.4423
vn 0.0298 -0.8959 0.4432
vn 0.0320 -0.8977 0.4394
vn 0.0298 0.8797 -0.4746
vn 0.0277 0.8816 -0.4711
vn 0.0251 0.8816 -0.4714
vn 0.0276 0.8817 -0.4710
vn 0.0792 0.9232 -0.3760
vn 0.0017 0.8666 -0.4990
vn 0.0431 0.8835 -0.4665
vn 0.0122 0.8697 -0.4935
vn 0.0378 0.8664 -0.4979
vn 0.0360 0.8780 -0.4772
vn 0.1160 0.9318 -0.3438
vn 0.1188 0.9423 -0.3131
vn 0.1188 0.9422 -0.3131
vn 0.0320 0.8777 -0.4782
vn 0.1188 0.9423 -0.3129
vn 0.0550 0.9283 -0.3678
vn 0.0298 0.8797 -0.4745
vn 0.0277 0.8818 -0.4709
vn 0.0425 0.9094 -0.4137
vn 0.0425 -0.8634 0.5027
vn 0.0482 -0.8742 0.4832
vn 0.0349 -0.8436 0.5359
vn 0.0312 -0.8072 0.5894
vn 0.0433 0.8836 -0.4662
vn 0.0855 0.9264 -0.3667
vn 0.0123 0.8698 -0.4933
vn 0.0481 0.8997 -0.4339
vn 0.0266 0.8808 -0.4728
vn 0.0436 0.8524 -0.5211
vn 0.1162 0.9319 -0.3437
vn 0.4658 0.4065 0.7860
vn 0.1220 0.9843 0.1276
vn 0.1221 0.9843 0.1278
vn 0.1189 0.9424 -0.3127
vn 0.1161 0.9319 -0.3436
vn 0.1188 0.9424 -0.3128
vn 0.1219 0.9843 0.1279
vn 0.0424 0.9818 -0.1852
vn 0.0424 0.9817 -0.1854
vn 0.1188 0.9423 -0.3130
vn 0.0277 -0.8941 0.4469
vn 0.0432 -0.8914 0.4512
vn 0.0482 -0.8742 0.4831
vn 0.0814 0.9244 -0.3727
vn 0.0267 0.8808 -0.4726
vn -0.0029 0.8852 -0.4652
vn 0.0001 0.8884 -0.4591
vn -0.0013 0.8838 -0.4679
vn 0.0191 0.8973 -0.4410
vn 0.0006 0.8884 -0.4591
vn 0.0003 0.8883 -0.4593
vn -0.0029 0.8851 -0.4654
vn -0.0016 0.8837 -0.4680
vn 0.0092 0.8913 -0.4532
vn 0.0116 0.8930 -0.4499
vn 0.0126 0.8851 -0.4652
vn 0.0253 0.8940 -0.4473
vn 0.0097 0.8905 -0.4549
vn 0.0096 0.8906 -0.4547
vn 0.0092 0.8913 -0.4533
vn 0.0125 0.8852 -0.4651
vn 0.0125 0.8851 -0.4652
vn 0.0188 0.8904 -0.4548
vn 0.0306 0.8986 -0.4378
vn 0.0211 0.8849 -0.4652
vn 0.0259 0.8871 -0.4608
vn 0.0208 0.8891 -0.4572
vn 0.0125 0.8852 -0.4650
vn 0.0207 0.8891 -0.4572
vn 0.0188 0.8905 -0.4546
vn 0.0207 0.8891 -0.4573
vn 0.0210 0.8849 -0.4654
vn 0.0305 0.8883 -0.4583
vn 0.0504 0.9023 -0.4282
vn 0.0280 0.8846 -0.4654
vn 0.0220 0.8789 -0.4766
vn 0.0327 0.8874 -0.4599
vn 0.0326 0.8873 -0.4600
vn 0.0305 0.8883 -0.4582
vn 0.0279 0.8846 -0.4655
vn 0.0409 0.8888 -0.4564
vn 0.0621 0.9110 -0.4076
vn 0.0260 0.8719 -0.4890
vn 0.0441 0.8879 -0.4580
vn 0.0279 0.8845 -0.4657
vn 0.0441 0.8878 -0.4581
vn 0.0409 0.8888 -0.4565
vn 0.0539 0.8896 -0.4536
vn 0.0792 0.9232 -0.3761
vn -0.2034 -0.9230 0.3266
vn 0.0355 0.8842 -0.4657
vn 0.0587 0.8875 -0.4570
vn 0.0539 0.8895 -0.4537
vn 0.0432 0.8836 -0.4662
vn 0.0676 0.8859 -0.4590
vn 0.0482 0.8998 -0.4337
vn 0.0437 0.8526 -0.5208
vn 0.0726 0.8838 -0.4622
vn 0.0349 -0.8436 0.5358
vn 0.0482 -0.8743 0.4830
vn 0.0775 -0.8896 0.4502
vn 0.0437 -0.8768 0.4788
vn 0.0814 0.9244 -0.3725
vn 0.0349 0.9251 -0.3782
vn -0.0000 0.8883 -0.4592
vn 0.0437 0.8977 -0.4384
vn 0.0297 0.8761 -0.4813
vn 0.0293 0.8755 -0.4824
vn 0.0351 0.8750 -0.4828
vn 0.0354 0.8758 -0.4814
vn 0.0241 0.8783 -0.4775
vn 0.0221 0.8778 -0.4786
vn 0.0293 0.8755 -0.4823
vn 0.0297 0.8761 -0.4812
vn -0.0839 0.8457 -0.5271
vn -0.3784 0.7315 -0.5673
vn -0.2035 0.8002 -0.5642
vn -0.1492 -0.9285 0.3400
vn -0.0213 -0.9035 0.4281
vn -0.0016 -0.8929 0.4502
vn -0.0029 -0.8915 0.4530
vn -0.0030 -0.8915 0.4530
vn -0.0001 -0.8884 0.4591
vn -0.0000 -0.8883 0.4592
vn -0.0015 -0.8930 0.4501
vn 0.0189 -0.8789 0.4767
vn 0.0134 -0.8824 0.4702
vn 0.0221 -0.8946 0.4464
vn 0.0303 0.8766 -0.4802
vn 0.0353 0.8758 -0.4814
vn 0.0192 0.8815 -0.4719
vn -0.0837 0.8457 -0.5270
vn -0.0018 -0.8930 0.4500
vn 0.0131 -0.8825 0.4702
vn 0.0114 -0.8836 0.4680
vn 0.0124 -0.8913 0.4532
vn 0.0252 -0.8819 0.4707
vn 0.0048 -0.8920 0.4520
vn 0.0260 -0.8970 0.4414
vn -0.5806 -0.8036 0.1310
vn -0.3784 -0.8858 0.2686
vn -0.2035 -0.9230 0.3266
vn -0.3627 -0.8963 0.2551
vn 0.0312 0.9477 -0.3176
vn 0.0425 0.9095 -0.4136
vn 0.0550 0.9283 -0.3677
vn 0.0425 -0.8635 0.5026
vn 0.0550 -0.8370 0.5444
vn 0.0125 -0.8913 0.4533
vn 0.0048 -0.8919 0.4521
vn 0.0306 -0.8767 0.4800
vn 0.0210 -0.8914 0.4527
vn 0.0258 -0.8891 0.4571
vn -0.0006 -0.8979 0.4402
vn -0.2034 0.8004 -0.5640
vn 0.0433 -0.8914 0.4512
vn 0.0676 -0.8868 0.4571
vn 0.0726 -0.8883 0.4536
vn 0.0221 0.8815 -0.4717
vn 0.0241 0.8784 -0.4774
vn 0.0211 -0.8913 0.4529
vn -0.0005 -0.8979 0.4402
vn 0.0504 -0.8711 0.4885
vn 0.0278 -0.8915 0.4522
vn 0.0218 -0.8972 0.4411
vn 0.0049 -0.9000 0.4358
vn 0.0356 -0.8985 0.4375
vn 0.0358 -0.8978 0.4389
vn 0.0311 -0.8982 0.4384
vn 0.0356 -0.8986 0.4374
vn 0.0304 -0.8988 0.4374
vn 0.0304 -0.8987 0.4374
vn 0.0261 -0.8970 0.4412
vn 0.0280 -0.8914 0.4524
vn 0.0051 -0.9000 0.4359
vn 0.0622 -0.8594 0.5075
vn 0.0354 -0.8914 0.4518
vn 0.0260 -0.9033 0.4283
vn 0.0016 -0.9084 0.4182
vn 0.0360 -0.8971 0.4403
vn 0.0320 -0.8977 0.4395
vn 0.0358 -0.8978 0.4390
vn 0.0311 -0.8982 0.4386
vn -0.2033 0.8003 -0.5641
vn -0.3628 0.7266 -0.5835
vn 0.0350 0.8750 -0.4828
vn 0.0277 -0.8942 0.4469
vn 0.0298 -0.8960 0.4431
vn 0.0355 -0.8911 0.4523
vn 0.0016 -0.9082 0.4186
vn 0.0792 -0.8406 0.5359
vn 0.0432 -0.8914 0.4511
vn 0.0377 -0.9073 0.4188
vn 0.0122 -0.9055 0.4241
vn 0.0360 -0.8972 0.4402
vn 0.1188 -0.8004 0.5876
vn 0.1161 -0.8194 0.5613
vn 0.1188 -0.8003 0.5877
vn 0.1187 -0.8004 0.5876
vn 0.0277 0.8817 -0.4710
vn 0.0550 0.9282 -0.3679
vn 0.0260 -0.8970 0.4412
vn 0.0432 -0.8913 0.4514
vn 0.0123 -0.9054 0.4243
vn 0.0855 -0.8350 0.5436
vn 0.0437 -0.9180 0.3941
vn 0.0267 -0.8951 0.4451
vn 0.1161 -0.8192 0.5616
vn 0.1219 -0.4649 0.8769
vn 0.4656 0.4062 0.7862
vn 0.1220 -0.4650 0.8768
vn 0.1161 -0.8193 0.5615
vn 0.1189 -0.8003 0.5877
vn 0.0424 -0.7189 0.6938
vn 0.1220 -0.4649 0.8769
vn 0.0482 -0.8741 0.4834
vn 0.0267 -0.8949 0.4455
vn 0.0814 -0.8385 0.5388
vn 0.0349 -0.8435 0.5360
vn -0.0000 -0.8883 0.4593
vn -0.0013 -0.8926 0.4509
vn 0.0006 -0.8881 0.4597
vn 0.0191 -0.8784 0.4775
vn -0.0029 -0.8915 0.4531
vn 0.0003 -0.8884 0.4591
vn -0.0029 -0.8916 0.4528
vn 0.0003 -0.8884 0.4590
vn -0.0015 -0.8929 0.4503
vn 0.0117 -0.8835 0.4683
vn 0.0093 -0.8853 0.4650
vn 0.0127 -0.8913 0.4532
vn 0.0098 -0.8860 0.4635
vn 0.0254 -0.8819 0.4708
vn -0.0016 -0.8930 0.4501
vn 0.0092 -0.8854 0.4648
vn 0.0096 -0.8861 0.4634
vn 0.0095 -0.8860 0.4636
vn 0.0306 -0.8768 0.4799
vn 0.0188 -0.8860 0.4634
vn 0.0207 -0.8873 0.4608
vn 0.0258 -0.8890 0.4571
vn 0.0210 -0.8913 0.4529
vn 0.0504 -0.8711 0.4886
vn 0.0305 -0.8875 0.4597
vn 0.0279 -0.8913 0.4525
vn 0.0326 -0.8884 0.4580
vn 0.0219 -0.8970 0.4414
vn 0.0305 -0.8876 0.4597
vn 0.0326 -0.8885 0.4578
vn 0.0279 -0.8914 0.4524
vn 0.0621 -0.8594 0.5075
vn 0.0409 -0.8864 0.4612
vn 0.0356 -0.8913 0.4521
vn 0.0442 -0.8871 0.4594
vn 0.0261 -0.9032 0.4285
vn 0.0279 -0.8915 0.4522
vn 0.0409 -0.8865 0.4609
vn 0.0441 -0.8872 0.4593
vn 0.0441 -0.8871 0.4594
vn 0.0355 -0.8913 0.4520
vn 0.0792 -0.8408 0.5356
vn 0.0539 -0.8846 0.4632
vn 0.0355 -0.8912 0.4522
vn 0.0539 -0.8845 0.4634
vn 0.0587 -0.8860 0.4599
vn 0.0855 -0.8351 0.5434
vn 0.0676 -0.8869 0.4570
vn 0.0726 -0.8882 0.4537
vn 0.0437 -0.9179 0.3943
vn -0.2037 0.8002 -0.5641
vn -0.3785 0.7315 -0.5672
vn -0.5807 0.5717 -0.5797
vn -0.3627 0.7265 -0.5836
vn 0.0814 -0.8387 0.5385
vn 0.0587 -0.8861 0.4598
vn 0.0378 -0.9072 0.4189
vn 0.0279 0.8845 -0.4656
vt 0.160200 1.240700
vt 0.182600 1.223400
vt 0.182500 1.217700
vt 0.158000 1.216500
vt 0.125500 1.139400
vt 0.067300 1.180800
vt 0.058100 1.168300
vt 0.125900 1.114200
vt 0.127200 1.087900
vt 0.018800 1.239400
vt 0.031400 1.240000
vt 0.175300 1.073000
vt 0.186000 1.043000
vt 0.218700 1.042500
vt 0.226000 1.034900
vt 0.113100 1.254600
vt 0.136900 1.247200
vt 0.141800 1.265200
vt 0.119300 1.266400
vt 0.162000 1.134000
vt 0.165300 1.099600
vt 0.099600 1.230300
vt 0.092200 1.218100
vt 0.063800 1.248000
vt 0.073000 1.252300
vt 0.214400 1.047200
vt 0.198700 1.073300
vt 0.201800 1.066200
vt 0.183600 1.194700
vt 0.157700 1.191000
vt 0.183000 1.200400
vt 0.158000 1.263800
vt 0.184800 1.250400
vt 0.184300 1.245200
vt 0.127400 1.186100
vt 0.084300 1.205700
vt 0.076100 1.193300
vt 0.126000 1.163400
vt 0.159400 1.164100
vt 0.195700 1.080500
vt 0.189500 1.110500
vt 0.190400 1.102700
vt 0.030900 1.284300
vt 0.053900 1.244500
vt 0.039500 1.284200
vt 0.022500 1.283900
vt 0.043100 1.241700
vt 0.132800 1.228100
vt 0.129700 1.207700
vt 0.188600 1.118000
vt 0.188400 1.146200
vt 0.188000 1.139400
vt 0.048200 1.283600
vt 0.014100 1.283100
vt 0.187400 1.153000
vt 0.186100 1.176700
vt 0.186000 1.171000
vt 0.057000 1.282400
vt 0.081500 1.257000
vt 0.106500 1.242500
vt 0.184800 1.182800
vt 0.183000 1.206400
vt 0.065900 1.280800
vt 0.089500 1.262000
vt 0.182400 1.212100
vt 0.183400 1.234600
vt 0.182700 1.228800
vt 0.074900 1.278800
vt 0.097000 1.267100
vt 0.183600 1.239900
vt 0.239500 1.021800
vt 0.246000 1.014500
vt 0.232600 1.028600
vt 0.210000 1.053300
vt 0.205700 1.059700
vt 0.193700 1.087700
vt 0.191900 1.095300
vt 0.188400 1.125300
vt 0.188200 1.132600
vt 0.187000 1.159300
vt 0.186600 1.165400
vt 0.184200 1.188700
vt 0.183000 1.256200
vt 0.253900 1.005900
vt 0.005900 1.281700
vt 0.175500 1.261400
s 0
usemtl Material__5
f 59/1/1 84/2/2 83/3/3 51/4/4
f 95/5/5 89/6/6 6/7/7 90/8/8
f 7/8/9 8/9/10 6/7/11
f 4/10/12 6/7/7 89/6/13 87/11/14
f 9/12/15 10/13/16 8/9/17
f 9/12/18 13/14/19 14/15/20
f 124/16/21 125/17/22 66/18/23 65/19/24
f 18/5/25 7/8/9 6/7/26 5/6/27
f 102/20/28 95/5/29 90/8/8 96/21/30
f 41/22/31 33/23/32 32/24/33 40/25/34
f 9/12/35 20/26/36 13/14/37
f 19/21/38 21/27/39 22/28/40
f 82/29/41 43/30/42 51/4/43 54/31/44
f 67/32/45 86/33/46 85/34/47 59/1/48
f 107/35/49 100/36/50 94/37/51 101/38/52
f 114/30/53 107/35/49 101/38/54 108/39/55
f 19/21/56 28/40/57 21/27/58
f 27/20/59 29/41/60 30/42/61
f 99/43/62 98/44/63 104/24/64 105/45/65
f 93/46/66 92/47/67 98/44/63 99/43/68
f 50/48/69 42/49/70 33/23/32 41/22/31
f 35/39/71 27/20/72 18/5/25 26/38/73
f 27/20/74 36/50/75 29/41/76
f 35/39/77 37/51/78 38/52/79
f 31/45/80 39/53/81 40/25/82
f 40/25/82 32/24/33 31/45/80
f 101/38/54 94/37/51 89/6/83 95/5/29
f 113/49/84 106/23/85 100/36/86 107/35/49
f 88/54/87 87/11/88 92/47/67 93/46/89
f 35/39/90 44/55/91 37/51/92
f 43/30/93 45/56/94 46/57/95
f 39/53/96 47/58/97 48/59/98
f 48/59/99 40/25/100 39/53/101
f 110/25/102 112/22/103 118/60/104 116/59/105
f 41/22/31 49/60/106 50/48/107
f 42/49/108 50/48/109 51/4/4
f 43/30/42 52/61/110 45/56/111
f 51/4/112 53/62/113 54/31/114
f 47/58/115 55/63/116 56/64/117
f 56/64/118 48/59/99 47/58/115
f 48/59/119 56/64/120 57/16/121
f 57/16/121 49/60/122 48/59/119
f 59/1/1 51/4/4 50/48/123 58/17/124
f 125/17/125 126/1/126 67/32/127 66/18/128
f 51/4/129 60/65/130 53/62/131
f 59/1/132 61/66/133 62/67/134
f 55/63/135 63/68/136 64/69/137
f 64/69/138 56/64/139 55/63/140
f 56/64/141 64/69/142 65/19/143
f 65/19/144 57/16/121 56/64/145
f 49/60/122 41/22/31 40/25/34 48/59/119
f 119/48/146 120/4/147 126/1/148 125/17/125
f 59/1/48 68/70/149 61/66/150
f 10/13/151 71/71/152 11/72/152
f 9/12/153 14/15/154 72/73/155
f 9/12/15 72/73/156 10/13/157
f 9/12/158 73/74/159 20/26/160
f 19/21/161 22/28/162 74/75/163
f 9/12/158 74/75/164 73/74/165
f 19/21/166 74/75/164 9/12/15
f 19/21/167 75/76/168 28/40/169
f 27/20/170 30/42/171 76/77/172
f 19/21/173 76/77/174 75/76/175
f 27/20/72 76/77/176 19/21/166
f 27/20/177 77/78/178 36/50/179
f 35/39/180 38/52/181 78/79/182
f 27/20/72 78/79/183 77/78/184
f 35/39/71 78/79/183 27/20/72
f 35/39/185 79/80/186 44/55/187
f 43/30/42 46/57/188 80/81/189
f 35/39/190 80/81/191 79/80/192
f 43/30/42 80/81/189 35/39/71
f 43/30/42 81/82/193 52/61/194
f 87/11/195 89/6/83 94/37/51 92/47/67
f 43/30/196 82/29/197 81/82/198
f 51/4/199 83/3/200 60/65/130
f 59/1/201 62/67/202 84/2/203
f 67/32/204 126/1/205 85/34/206 86/33/207
f 59/1/201 85/34/47 68/70/208
f 67/32/209 70/83/210 86/33/211
f 24/44/212 16/47/213 15/46/214 23/43/215
f 25/36/216 17/37/217 16/47/218 24/44/219
f 5/6/220 6/7/26 4/10/221 3/11/222
f 19/21/166 9/12/15 8/9/10 7/8/9
f 90/8/8 6/7/223 8/9/224
f 8/9/224 91/12/225 90/8/8
f 91/12/225 8/9/224 10/13/226
f 10/13/227 12/84/228 11/72/229
f 91/12/230 14/15/231 13/14/232
f 120/4/147 113/49/84 107/35/233 114/30/53
f 32/24/234 24/44/219 23/43/235 31/45/80
f 26/38/236 18/5/25 5/6/237 17/37/217
f 33/23/32 25/36/216 24/44/219 32/24/33
f 96/21/30 90/8/8 91/12/225
f 91/12/238 13/14/239 20/26/240
f 96/21/241 22/28/242 97/27/243
f 98/44/63 100/36/86 106/23/244 104/24/64
f 1/85/245 4/10/246 87/11/247 88/54/248
f 66/18/249 58/17/250 57/16/251 65/19/144
f 118/60/104 119/48/146 125/17/252 124/16/253
f 96/21/254 97/27/255 28/40/256
f 102/20/257 30/42/258 103/41/259
f 17/37/217 5/6/27 3/11/260 16/47/218
f 126/1/148 120/4/261 83/3/262 84/2/263
f 34/35/264 26/38/73 17/37/217 25/36/265
f 108/39/55 101/38/54 95/5/5 102/20/28
f 102/20/266 103/41/267 36/50/268
f 108/39/269 38/52/270 109/51/271
f 105/45/272 110/25/102 111/53/273
f 110/25/274 105/45/275 104/24/276
f 27/20/72 19/21/166 7/8/9 18/5/25
f 42/49/70 34/35/264 25/36/216 33/23/32
f 104/24/277 106/23/278 112/22/103 110/25/102
f 108/39/279 109/51/280 44/55/281
f 114/30/282 46/57/283 115/56/284
f 111/53/273 116/59/105 117/58/285
f 116/59/286 111/53/287 110/25/288
f 16/47/218 3/11/289 2/54/290 15/46/291
f 112/22/103 119/48/292 118/60/293
f 113/49/84 120/4/147 119/48/292
f 114/30/294 115/56/295 52/61/296
f 120/4/297 54/31/298 121/62/299
f 117/58/300 122/64/301 123/63/302
f 122/64/303 117/58/285 116/59/105
f 116/59/105 124/16/253 122/64/304
f 124/16/253 116/59/105 118/60/104
f 58/17/124 50/48/305 49/60/122 57/16/306
f 119/48/292 112/22/103 106/23/307 113/49/84
f 120/4/308 121/62/309 60/65/310
f 126/1/205 62/67/311 127/66/312
f 123/63/313 64/69/314 63/68/315
f 64/69/316 123/63/317 122/64/303
f 122/64/318 65/19/319 64/69/320
f 65/19/24 122/64/303 124/16/21
f 51/4/4 43/30/42 34/35/264 42/49/70
f 67/32/209 59/1/48 58/17/124 66/18/249
f 126/1/321 127/66/322 68/70/323
f 67/32/324 70/83/325 69/86/325
f 91/12/326 72/73/327 14/15/328
f 10/13/329 71/71/325 72/73/330
f 91/12/225 10/13/331 72/73/332
f 91/12/333 20/26/334 73/74/335
f 96/21/336 74/75/337 22/28/338
f 91/12/339 73/74/340 74/75/341
f 96/21/30 91/12/225 74/75/342
f 96/21/30 28/40/343 75/76/344
f 102/20/28 76/77/345 30/42/346
f 96/21/30 75/76/344 76/77/345
f 102/20/28 96/21/30 76/77/345
f 102/20/347 36/50/348 77/78/349
f 108/39/350 78/79/351 38/52/352
f 102/20/28 77/78/353 78/79/354
f 108/39/55 102/20/28 78/79/354
f 108/39/355 44/55/356 79/80/357
f 114/30/358 80/81/359 46/57/360
f 108/39/361 79/80/362 80/81/363
f 114/30/53 108/39/55 80/81/364
f 114/30/365 52/61/366 81/82/367
f 92/47/67 94/37/51 100/36/86 98/44/63
f 114/30/368 81/82/369 82/29/370
f 120/4/297 60/65/371 83/3/372
f 126/1/126 84/2/373 62/67/374
f 3/11/375 4/10/376 1/85/377 2/54/378
f 126/1/205 68/70/379 85/34/206
f 120/4/147 114/30/53 82/29/380 54/31/381
f 43/30/42 35/39/382 26/38/73 34/35/264
