# Blender 4.2.20 LTS
# www.blender.org
mtllib Fin1_L.mtl
o Fin1_L
v -0.003232 -0.046696 0.002878
v -0.000232 -0.046196 0.003578
v 0.004268 -0.055396 0.004778
v 0.001068 -0.057396 0.004178
v 0.009568 -0.062296 0.006378
v 0.006468 -0.066696 0.005678
v 0.015568 -0.068696 0.008178
v 0.013068 -0.075496 0.007478
v 0.020968 -0.081796 0.009678
v 0.020668 -0.083696 0.009578
v 0.022168 -0.074496 0.010078
v 0.021868 -0.076296 0.009978
v 0.002868 -0.045896 0.004278
v 0.007568 -0.053296 0.005578
v 0.012468 -0.057996 0.007078
v 0.017768 -0.062196 0.008678
v 0.022368 -0.072796 0.010078
v 0.023368 -0.065896 0.010378
v 0.023168 -0.067596 0.010278
v 0.005468 -0.045496 0.005078
v 0.010668 -0.051096 0.006578
v 0.015068 -0.053696 0.007878
v 0.019668 -0.055896 0.009278
v 0.023568 -0.064296 0.010478
v 0.024368 -0.057896 0.010678
v 0.024168 -0.059496 0.010578
v 0.008368 -0.045296 0.006178
v 0.012068 -0.046996 0.007178
v 0.016868 -0.048796 0.008578
v 0.020568 -0.049596 0.009578
v 0.024468 -0.056396 0.010678
v 0.023368 -0.050296 0.010378
v 0.024468 -0.051396 0.010678
v 0.021268 -0.079996 0.009778
v 0.021568 -0.078196 0.009878
v 0.022668 -0.071096 0.010178
v 0.022868 -0.069296 0.010278
v 0.023768 -0.062696 0.010478
v 0.023968 -0.061096 0.010578
v 0.024568 -0.054896 0.010778
v 0.024768 -0.053496 0.010778
v -0.003332 -0.046696 0.003078
v 0.004168 -0.055396 0.005378
v -0.000332 -0.046196 0.004178
v 0.001068 -0.057396 0.004278
v 0.009468 -0.062296 0.006878
v 0.006468 -0.066696 0.005878
v 0.015468 -0.068696 0.008378
v 0.012968 -0.075496 0.007678
v 0.020568 -0.083696 0.009778
v 0.020868 -0.081796 0.009878
v 0.021768 -0.076296 0.010178
v 0.022068 -0.074496 0.010278
v 0.007268 -0.053296 0.006478
v 0.002668 -0.045896 0.005178
v 0.012268 -0.057996 0.007778
v 0.017668 -0.062196 0.009078
v 0.022368 -0.072796 0.010278
v 0.023068 -0.067596 0.010478
v 0.023368 -0.065896 0.010578
v 0.010468 -0.051096 0.007178
v 0.005268 -0.045496 0.005778
v 0.014968 -0.053696 0.008378
v 0.019568 -0.055896 0.009578
v 0.023568 -0.064296 0.010678
v 0.024068 -0.059496 0.010778
v 0.024268 -0.057896 0.010878
v 0.012068 -0.046996 0.007378
v 0.008268 -0.045296 0.006378
v 0.016868 -0.048796 0.008778
v 0.020468 -0.049596 0.009778
v 0.024468 -0.056396 0.010878
v 0.024368 -0.051396 0.010878
v 0.023368 -0.050296 0.010578
v 0.021168 -0.079996 0.009978
v 0.021468 -0.078196 0.010078
v 0.022568 -0.071096 0.010378
v 0.022868 -0.069296 0.010478
v 0.023768 -0.062696 0.010678
v 0.023868 -0.061096 0.010778
v 0.024568 -0.054896 0.010878
v 0.024668 -0.053496 0.010978
vn 0.2804 -0.0099 -0.9598
vn 0.2589 -0.0214 -0.9657
vn 0.2360 -0.0279 -0.9714
vn 0.2704 -0.0086 -0.9627
vn 0.2926 0.0133 -0.9561
vn 0.2977 0.0274 -0.9543
vn -0.2850 -0.0175 0.9584
vn -0.2729 -0.0047 0.9620
vn -0.2698 -0.0090 0.9629
vn -0.2810 -0.0214 0.9595
vn 0.2673 -0.0047 -0.9636
vn 0.2701 -0.0000 -0.9628
vn 0.2704 -0.0090 -0.9627
vn 0.2759 -0.0010 -0.9612
vn 0.2831 -0.0063 -0.9591
vn 0.2703 -0.0090 -0.9627
vn -0.3111 -0.0274 0.9500
vn -0.2811 -0.0214 0.9594
vn -0.3036 -0.0279 0.9524
vn -0.2569 -0.0063 0.9664
vn -0.2596 -0.0099 0.9657
vn 0.2759 -0.0009 -0.9612
vn 0.2863 -0.0024 -0.9581
vn 0.2862 -0.0025 -0.9582
vn -0.2692 -0.0016 0.9631
vn -0.2644 -0.0010 0.9644
vn -0.3248 -0.0338 0.9452
vn -0.2697 -0.0086 0.9629
vn -0.2817 -0.0089 0.9595
vn -0.2595 -0.0099 0.9657
vn -0.2568 -0.0063 0.9664
vn -0.2530 0.0034 0.9675
vn -0.2473 0.0133 0.9689
vn 0.2830 -0.0063 -0.9591
vn 0.2864 -0.0021 -0.9581
vn 0.2870 0.0034 -0.9579
vn 0.2790 -0.0010 -0.9603
vn 0.2789 -0.0011 -0.9603
vn 0.3141 0.0493 -0.9481
vn 0.3325 0.1528 -0.9306
vn 0.3002 0.0492 -0.9526
vn 0.3001 0.0491 -0.9526
vn 0.3141 0.0492 -0.9481
vn -0.2420 0.0274 0.9699
vn -0.2473 0.0133 0.9688
vn -0.2572 0.0310 0.9659
vn -0.2391 0.0491 0.9698
vn 0.2871 0.0034 -0.9579
vn 0.2790 -0.0009 -0.9603
vn 0.2791 0.0108 -0.9602
vn 0.2700 -0.0000 -0.9629
vn 0.2672 -0.0047 -0.9636
vn 0.2783 -0.0041 -0.9605
vn 0.2861 -0.0025 -0.9582
vn 0.2710 -0.0016 -0.9626
vn -0.2570 -0.0063 0.9664
vn -0.2620 -0.0041 0.9651
vn -0.2540 -0.0025 0.9672
vn 0.2841 0.0005 -0.9588
vn 0.2870 0.0035 -0.9579
vn 0.2790 -0.0008 -0.9603
vn -0.2531 0.0034 0.9674
vn -0.2559 0.0004 0.9667
vn -0.2610 -0.0011 0.9653
vn 0.2870 0.0033 -0.9579
vn 0.2756 0.0022 -0.9613
vn 0.2359 -0.0279 -0.9714
vn 0.2281 -0.0274 -0.9733
vn 0.2062 -0.0341 -0.9779
vn 0.2140 -0.0339 -0.9762
vn -0.3034 -0.0279 0.9525
vn -0.2809 -0.0214 0.9595
vn -0.2697 -0.0087 0.9629
vn -0.2608 0.0108 0.9653
vn -0.2646 0.0024 0.9644
vn -0.2701 -0.0000 0.9628
vn -0.2730 -0.0048 0.9620
vn -0.2696 -0.0090 0.9629
vn -0.2641 -0.0010 0.9645
vn -0.2640 -0.0010 0.9645
vn 0.2548 -0.0175 -0.9668
vn 0.2282 -0.0274 -0.9732
vn -0.2816 -0.0089 0.9595
vn -0.2419 0.0274 0.9699
vn -0.2247 0.0492 0.9732
vn -0.2642 -0.0010 0.9645
vn -0.2641 -0.0009 0.9645
vn -0.2538 -0.0025 0.9673
vn -0.2536 -0.0024 0.9673
vn 0.2582 -0.0089 -0.9660
vn 0.2583 -0.0089 -0.9660
vn -0.3324 -0.0341 0.9425
vn -0.3112 -0.0274 0.9500
vn -0.3035 -0.0279 0.9524
vn -0.3247 -0.0338 0.9452
vn -0.2537 -0.0024 0.9673
vn -0.2536 -0.0021 0.9673
vn -0.2529 0.0034 0.9675
vn -0.2611 -0.0011 0.9653
vn -0.2610 -0.0010 0.9653
vn -0.2001 0.1528 0.9678
vn 0.2792 0.0108 -0.9602
vn 0.2826 0.0310 -0.9587
vn -0.2612 -0.0010 0.9653
vn -0.2611 -0.0009 0.9653
vn -0.2607 0.0107 0.9654
vn -0.2700 -0.0001 0.9629
vn -0.2699 -0.0000 0.9629
vn -0.2700 -0.0000 0.9629
vn 0.2711 -0.0015 -0.9625
vn -0.2691 -0.0016 0.9631
vn 0.2549 -0.0175 -0.9668
vn -0.2618 -0.0041 0.9651
vn 0.2841 0.0004 -0.9588
vn -0.2540 -0.0021 0.9672
vn -0.2560 0.0004 0.9667
vn -0.2610 -0.0009 0.9653
vn 0.2757 0.0023 -0.9612
vn -0.2530 0.0033 0.9675
vn -0.2645 0.0022 0.9644
vn 0.3002 0.0491 -0.9526
vt 0.705700 1.192000
vt 0.684300 1.160400
vt 0.644500 1.210900
vt 0.668400 1.226200
vt 0.725600 1.223200
vt 0.692400 1.241700
vt 0.661400 1.128500
vt 0.710400 1.065200
vt 0.729200 1.114200
vt 0.769900 1.019200
vt 0.767600 1.005900
vt 0.779100 1.072400
vt 0.776800 1.059100
vt 0.745700 1.161400
vt 0.620600 1.195900
vt 0.781000 1.084800
vt 0.788500 1.134600
vt 0.786600 1.122200
vt 0.774500 1.045800
vt 0.610600 1.276900
vt 0.633400 1.279200
vt 0.760000 1.206800
vt 0.789900 1.146200
vt 0.795600 1.192500
vt 0.794200 1.180900
vt 0.653100 1.282700
vt 0.675200 1.283800
vt 0.703300 1.271200
vt 0.739400 1.258100
vt 0.796600 1.203200
vt 0.767200 1.252800
vt 0.788400 1.247500
vt 0.796400 1.239600
vt 0.772200 1.032500
vt 0.784700 1.109700
vt 0.782900 1.097300
vt 0.791300 1.157800
vt 0.792700 1.169300
vt 0.797500 1.213900
vt 0.798500 1.224600
vt 0.587900 1.273900
s 0
usemtl Material__5
f 15/1/1 5/2/2 3/3/3 14/4/4
f 22/5/5 15/1/1 14/4/4 21/6/6
f 47/7/7 49/8/8 48/9/9 46/2/10
f 8/8/11 9/10/12 10/11/12
f 7/9/13 11/12/14 12/13/14
f 16/14/15 7/9/16 5/2/2 15/1/1
f 45/15/17 47/7/7 46/2/18 43/3/19
f 46/2/10 48/9/9 57/14/20 56/1/21
f 7/9/16 17/16/22 11/12/14
f 16/14/15 18/17/23 19/18/24
f 48/9/9 49/8/8 76/19/25 52/13/26
f 44/20/27 43/3/19 54/4/28 55/21/29
f 56/1/30 57/14/31 64/22/32 63/5/33
f 16/14/34 24/23/35 18/17/23
f 23/22/36 25/24/37 26/25/38
f 20/26/39 27/27/40 28/28/41
f 28/28/42 21/6/6 20/26/43
f 61/6/44 63/5/45 70/29/46 68/28/47
f 23/22/48 16/14/15 15/1/1 22/5/5
f 23/22/36 31/30/49 25/24/37
f 30/31/50 32/32/51 33/33/51
f 8/8/52 34/34/51 9/10/51
f 37/35/53 7/9/16 16/14/34 19/18/54
f 8/8/52 35/19/55 34/34/51
f 7/9/16 36/36/22 17/16/22
f 57/14/56 48/9/9 78/35/57 59/18/58
f 7/9/16 37/35/53 36/36/22
f 16/14/15 38/37/35 24/23/35
f 16/14/15 39/38/59 38/37/35
f 23/22/60 40/39/61 31/30/61
f 64/22/62 57/14/20 80/38/63 66/25/64
f 23/22/65 41/40/66 40/39/37
f 3/3/67 4/15/68 1/41/69 2/20/70
f 43/3/71 46/2/72 56/1/21 54/4/73
f 71/31/74 64/22/32 82/40/75 73/33/76
f 49/8/77 50/11/76 51/10/76
f 48/9/78 52/13/79 53/12/80
f 54/4/28 56/1/21 63/5/33 61/6/44
f 5/2/2 6/7/81 4/15/82 3/3/3
f 55/21/83 54/4/28 61/6/84 62/26/85
f 48/9/9 53/12/86 58/16/87
f 57/14/20 59/18/88 60/17/89
f 21/6/6 14/4/4 13/21/90 20/26/43
f 14/4/4 3/3/3 2/20/70 13/21/91
f 42/41/92 45/15/93 43/3/94 44/20/95
f 57/14/20 60/17/96 65/23/97
f 64/22/98 66/25/99 67/24/100
f 62/26/85 68/28/47 69/27/101
f 68/28/47 62/26/85 61/6/44
f 63/5/45 64/22/32 71/31/74 70/29/46
f 30/31/102 23/22/36 22/5/5 29/29/103
f 64/22/62 67/24/104 72/30/105
f 71/31/106 73/33/107 74/32/108
f 49/8/8 51/10/109 75/34/109
f 35/19/110 8/8/52 7/9/13 12/13/14
f 49/8/8 75/34/109 76/19/111
f 48/9/9 58/16/87 77/36/87
f 7/9/16 8/8/52 6/7/112 5/2/2
f 48/9/9 77/36/87 78/35/113
f 57/14/20 65/23/97 79/37/97
f 39/38/114 16/14/15 23/22/65 26/25/38
f 57/14/20 79/37/115 80/38/116
f 64/22/32 72/30/117 81/39/117
f 41/40/118 23/22/36 30/31/102 33/33/51
f 64/22/119 81/39/117 82/40/120
f 29/29/103 22/5/5 21/6/6 28/28/121
