# Blender 4.4.2
# www.blender.org
o up_R
v 0.271772 -0.271772 0.300000
v -0.271772 -0.271772 0.300000
v 0.300000 -0.300000 0.300000
v -0.300000 -0.300000 0.300000
v 0.300000 -0.300000 -0.300000
v -0.300000 -0.300000 -0.248516
v 0.271772 -0.271772 -0.300000
v -0.271772 -0.271772 -0.246764
vn -0.0000 -1.0000 -0.0000
vn -0.0000 -0.0000 1.0000
vn -0.0000 1.0000 -0.0000
vn -0.7071 0.7071 -0.0000
vn -0.0912 0.0309 -0.9954
vn 0.7071 0.7071 -0.0000
vt 0.375000 0.250000
vt 0.625000 0.250000
vt 0.625000 0.500000
vt 0.396452 0.500000
vt 0.863239 0.511761
vt 0.636761 0.511761
vt 0.875000 0.500000
vt 0.389945 0.511761
vt 0.136762 0.511761
s 0
f 5/1/1 3/2/1 4/3/1 6/4/1
f 1/5/2 2/6/2 4/3/2 3/7/2
f 8/8/3 2/6/3 1/5/3 7/9/3
f 4/3/4 2/6/4 8/8/4 6/4/4
f 5/1/5 6/4/5 8/8/5 7/9/5
f 3/7/6 5/1/6 7/9/6 1/5/6
